Coordinates
version=1
nRows=17
nColumns=38
inDegrees=no

Units are S.I. units (second, meters, Newtons, ...)
If the header above contains a line with 'inDegrees', this indicates whether rotational values are in degrees (yes) or radians (no).

endheader
time	pelvis_tilt	pelvis_list	pelvis_rotation	pelvis_tx	pelvis_ty	pelvis_tz	hip_flexion_r	hip_adduction_r	hip_rotation_r	knee_angle_r	ankle_angle_r	subtalar_angle_r	mtp_angle_r	hip_flexion_l	hip_adduction_l	hip_rotation_l	knee_angle_l	ankle_angle_l	subtalar_angle_l	mtp_angle_l	lumbar_extension	lumbar_bending	lumbar_rotation	arm_flex_r	arm_add_r	arm_rot_r	elbow_flex_r	pro_sup_r	wrist_flex_r	wrist_dev_r	arm_flex_l	arm_add_l	arm_rot_l	elbow_flex_l	pro_sup_l	wrist_flex_l	wrist_dev_l
0.51	0.286403	1.40567	-1.76172	0.72959	0.882884	0.969407	0.264939	-0.189761	-0.137639	1.14407	-0.0538404	0	0	-0.0605875	0.0466139	-0.203995	0.351771	0.188323	0	0	-0.226581	-0.0846701	-0.106737	-0.165127	-0.153425	-0.0200646	0.537031	1.19734	0	0	-0.0590746	-0.344242	0.39901	0.712643	0.797185	0	0
0.52	0.270754	1.40384	-1.73945	0.730561	0.873902	0.969805	0.273908	-0.190601	-0.147545	1.11473	-0.0418852	0	0	-0.0789762	0.0446535	-0.196162	0.341481	0.19268	0	0	-0.232656	-0.081253	-0.11301	-0.164434	-0.151926	-0.024814	0.534977	1.19409	0	0	-0.0456708	-0.343557	0.39721	0.718451	0.809036	0	0
0.53	0.254488	1.40196	-1.71694	0.731418	0.864885	0.970078	0.281593	-0.191067	-0.157943	1.08277	-0.0317987	0	0	-0.0970363	0.0421649	-0.188093	0.332109	0.197408	0	0	-0.238572	-0.0776088	-0.118727	-0.163937	-0.150577	-0.027848	0.532906	1.19265	0	0	-0.0316863	-0.342928	0.398308	0.723603	0.821499	0	0
0.54	0.241553	1.40055	-1.6977	0.732247	0.855874	0.97019	0.288686	-0.192068	-0.169501	1.04841	-0.022494	0	0	-0.114281	0.0398695	-0.179907	0.322932	0.20193	0	0	-0.243767	-0.0743216	-0.124425	-0.162698	-0.14925	-0.028494	0.528803	1.19382	0	0	-0.017418	-0.341936	0.400081	0.727737	0.832349	0	0
0.55	0.228976	1.39926	-1.68004	0.733004	0.846951	0.970162	0.295158	-0.193035	-0.181621	1.01174	-0.0132743	0	0	-0.131128	0.0375576	-0.173062	0.31392	0.206257	0	0	-0.248893	-0.070879	-0.128698	-0.161493	-0.148349	-0.0281741	0.525184	1.19677	0	0	-0.00232066	-0.34006	0.402764	0.73011	0.842559	0	0
0.56	0.215649	1.39845	-1.66273	0.733638	0.838039	0.969952	0.301425	-0.193209	-0.193647	0.973264	-0.00421799	0	0	-0.146792	0.0349712	-0.167132	0.306027	0.210661	0	0	-0.253459	-0.0671426	-0.131625	-0.159856	-0.147583	-0.0281644	0.521883	1.197	0	0	0.0130938	-0.338119	0.407938	0.732028	0.847805	0	0
0.57	0.2017	1.39756	-1.64512	0.734199	0.829093	0.969632	0.306392	-0.19294	-0.206663	0.932907	0.00409125	0	0	-0.162437	0.0320523	-0.161094	0.298474	0.215047	0	0	-0.257968	-0.063119	-0.134117	-0.158185	-0.146862	-0.0287234	0.51944	1.19513	0	0	0.0283929	-0.335829	0.414294	0.732886	0.853972	0	0
0.58	0.203488	1.39703	-1.63764	0.733845	0.819829	0.969192	0.31077	-0.185824	-0.218599	0.892489	0.00529156	0	0	-0.178027	0.0234096	-0.163402	0.28949	0.224874	0	0	-0.261932	-0.0628148	-0.139215	-0.157827	-0.144126	-0.0277857	0.515656	1.19351	0	0	0.0447978	-0.334331	0.420908	0.732542	0.862309	0	0
0.59	0.189287	1.39575	-1.62034	0.734311	0.810734	0.968609	0.313477	-0.186014	-0.234054	0.849262	0.0109586	0	0	-0.194378	0.0205837	-0.157205	0.281276	0.228945	0	0	-0.266657	-0.0583351	-0.140871	-0.15635	-0.144047	-0.0252879	0.513169	1.19201	0	0	0.0597867	-0.329631	0.423238	0.730685	0.877955	0	0
0.6	0.173832	1.39456	-1.60275	0.734646	0.801524	0.967885	0.315508	-0.185163	-0.249536	0.804783	0.0152617	0	0	-0.210974	0.0175089	-0.15209	0.272836	0.23321	0	0	-0.271088	-0.0536233	-0.141402	-0.154701	-0.143964	-0.0221201	0.509884	1.19329	0	0	0.0742838	-0.324691	0.426202	0.728659	0.889173	0	0
0.61	0.157253	1.39331	-1.58493	0.734859	0.792194	0.967036	0.316656	-0.183254	-0.265084	0.759103	0.0183867	0	0	-0.228167	0.0141554	-0.148302	0.263813	0.237829	0	0	-0.275356	-0.0486983	-0.141088	-0.153279	-0.144109	-0.01804	0.507058	1.19606	0	0	0.0877356	-0.319335	0.42751	0.72709	0.897281	0	0
0.62	0.140147	1.39212	-1.56742	0.734988	0.782744	0.966051	0.31698	-0.180425	-0.280644	0.712265	0.0206336	0	0	-0.245968	0.0107346	-0.145755	0.253885	0.242688	0	0	-0.279252	-0.0436552	-0.140127	-0.151746	-0.144324	-0.0148262	0.50472	1.19762	0	0	0.100458	-0.313508	0.428619	0.724706	0.905434	0	0
0.63	0.122974	1.39114	-1.55017	0.735056	0.773232	0.96491	0.316834	-0.176801	-0.296267	0.664735	0.0229031	0	0	-0.263482	0.00708504	-0.144798	0.244218	0.248112	0	0	-0.28281	-0.0384897	-0.139065	-0.150106	-0.144531	-0.012523	0.503076	1.1976	0	0	0.112297	-0.30729	0.429059	0.722628	0.911102	0	0
0.64	0.106641	1.39041	-1.53466	0.73498	0.763572	0.963609	0.316653	-0.172426	-0.311419	0.617276	0.0260614	0	0	-0.281255	0.00350851	-0.145287	0.234025	0.253815	0	0	-0.2858	-0.0336037	-0.137419	-0.148437	-0.144648	-0.010464	0.50155	1.19671	0	0	0.122893	-0.300762	0.428039	0.720545	0.91594	0	0
0.65	0.0907185	1.39033	-1.52021	0.734747	0.753766	0.962139	0.316643	-0.167003	-0.325801	0.5694	0.0301204	0	0	-0.298383	-0.00018754	-0.146864	0.224237	0.259873	0	0	-0.287739	-0.0290892	-0.13582	-0.145808	-0.144632	-0.00644401	0.497751	1.19729	0	0	0.131809	-0.293999	0.424552	0.71842	0.921312	0	0
0.66	0.0759148	1.39134	-1.50705	0.734387	0.743834	0.960469	0.317493	-0.160932	-0.33958	0.52179	0.0353524	0	0	-0.313465	-0.00396334	-0.149434	0.216449	0.266602	0	0	-0.288318	-0.0249835	-0.134554	-0.143264	-0.144054	-0.00462867	0.494605	1.19714	0	0	0.139204	-0.287625	0.420555	0.717074	0.924172	0	0
0.67	0.0583759	1.39214	-1.49107	0.733949	0.733755	0.958758	0.316649	-0.152946	-0.351612	0.472571	0.0411099	0	0	-0.328843	-0.00847136	-0.152157	0.208722	0.273208	0	0	-0.28903	-0.0203411	-0.133575	-0.140474	-0.143229	-0.00317755	0.490809	1.19788	0	0	0.145463	-0.280646	0.413727	0.715346	0.929643	0	0
